<svg xmlns="http://www.w3.org/2000/svg" width="24" height="24" viewBox="0 0 24 24" fill="none" stroke="#3A4750" stroke-width="1.5" stroke-linecap="round" stroke-linejoin="round">
  <path d="M12 2.69l.346.666L12.702 4l.334.346.666.346L14 5.048l.346-.334.346-.666L15.048 4l-.334-.346-.666-.346L14 2.952l-.346.334-.346.666L12.952 4l.334.346.666.346L14 5.048"/>
  <path d="M3 12l.346.666L3.702 13l.334.346.666.346L5.048 14l.346-.334.346-.666L5.048 13l-.334-.346-.666-.346L4 12.952l-.346.334-.346.666L2.952 13l.334.346.666.346L4 14.048"/> 
  <path d="M19 12l.346.666L19.702 13l.334.346.666.346L21.048 14l.346-.334.346-.666L21.048 13l-.334-.346-.666-.346L20 12.952l-.346.334-.346.666L18.952 13l.334.346.666.346L20 14.048"/>
  <path d="M12 21.69l.346.666L12.702 23l.334.346.666.346L14 24.048l.346-.334.346-.666L15.048 23l-.334-.346-.666-.346L14 22.952l-.346.334-.346.666L12.952 23l.334.346.666.346L14 24.048"/> 
  <path d="M12 6v12M6 12h12"/>
</svg>